<?xml version="1.0" ?><svg id="Layer_1_1_" style="enable-background:new 0 0 64 64;" version="1.1" viewBox="0 0 64 64" xml:space="preserve" xmlns="http://www.w3.org/2000/svg" xmlns:xlink="http://www.w3.org/1999/xlink"><g><path d="M22,8c0-2.206-1.794-4-4-4s-4,1.794-4,4s1.794,4,4,4S22,10.206,22,8z M18,10c-1.103,0-2-0.897-2-2   s0.897-2,2-2s2,0.897,2,2S19.103,10,18,10z" style="fill:#3F3A34;"/><path d="M36,23.156C36,21.416,34.584,20,32.844,20H30c0-1.654-1.346-3-3-3h-1.454   C24.693,17,24,16.307,24,15.454V14h2V1H10v13h2v1.789c0,0.595-0.174,1.17-0.504,1.664l-0.656,0.984   c-0.321,0.48-0.542,1.01-0.68,1.562H8.156C6.416,20,5,21.416,5,23.156V29H1v27c0,3.859,3.141,7,7,7h30c3.939,0,6-3.521,6-7V29h-8   V23.156z M32.844,22C33.481,22,34,22.519,34,23.156V24H24v-1h3c0.883,0,1.67-0.391,2.22-1H32.844z M12,3h12v9h-6h-6V3z M12,21.211   c0-0.595,0.174-1.17,0.504-1.664l0.656-0.984C13.71,17.739,14,16.78,14,15.789V14h8v1.454C22,17.409,23.591,19,25.546,19H27   c0.552,0,1,0.448,1,1s-0.448,1-1,1h-5v7c0,0.263-0.106,0.521-0.293,0.707c-0.391,0.391-1.023,0.391-1.414,0   C20.106,28.521,20,28.263,20,28v-2.172V25h-2v0.828V28c0,0.382-0.212,0.725-0.552,0.895c-0.283,0.141-0.618,0.14-0.896,0   C16.212,28.725,16,28.382,16,28v-1v-1v-1h-2v1v1c0,1.618-0.388,1.812-0.552,1.895c-0.283,0.141-0.618,0.14-0.896,0   C12.212,28.725,12,28.382,12,28v-2V21.211z M8.156,22H10v2H7v-0.844C7,22.519,7.519,22,8.156,22z M7,26h3v2   c0,0.349,0.066,0.684,0.177,1H7V26z M38,61H8c-2.757,0-5-2.243-5-5V43h16v4.5c0,1.93,1.57,3.5,3.5,3.5s3.5-1.57,3.5-3.5V43h16v13   C42,58.408,40.748,61,38,61z M21,47.5V39h3v8.5c0,0.827-0.673,1.5-1.5,1.5S21,48.327,21,47.5z M42,31v10H26v-4h-7v4H3V31H42z    M23.818,29C23.931,28.682,24,28.347,24,28v-2h10v3H23.818z" style="fill:#3F3A34;"/><rect height="2" style="fill:#3F3A34;" width="2" x="7" y="37"/><rect height="2" style="fill:#3F3A34;" width="2" x="11" y="37"/><rect height="2" style="fill:#3F3A34;" width="2" x="15" y="37"/><rect height="2" style="fill:#3F3A34;" width="2" x="28" y="37"/><rect height="2" style="fill:#3F3A34;" width="2" x="32" y="37"/><rect height="2" style="fill:#3F3A34;" width="2" x="36" y="37"/><path d="M63,15c0-7.72-6.28-14-14-14S35,7.28,35,15c0,7.039,5.227,12.865,12,13.84V32h-1v2h1v17   c0,1.654,1.346,3,3,3s3-1.346,3-3V34h1v-2h-1v-3.59C58.775,26.684,63,21.329,63,15z M37,15c0-6.617,5.383-12,12-12s12,5.383,12,12   s-5.383,12-12,12S37,21.617,37,15z M51,51c0,0.552-0.448,1-1,1s-1-0.448-1-1V34h2V51z M51,32h-2v-3c0.681,0,1.345-0.065,2-0.16V32z   " style="fill:#3F3A34;"/><path d="M59,15c0-5.514-4.486-10-10-10S39,9.486,39,15s4.486,10,10,10S59,20.514,59,15z M49,7   c3.711,0,6.83,2.543,7.73,5.975C55.332,11.35,52.68,9,49,9s-6.332,2.35-7.73,3.975C42.17,9.543,45.289,7,49,7z M55.788,15.002   C54.916,16.187,52.478,19,49,19c-3.46,0-5.911-2.817-6.788-4.002C43.084,13.812,45.522,11,49,11   C52.461,11,54.912,13.818,55.788,15.002z M41.27,17.025C42.668,18.65,45.32,21,49,21s6.332-2.35,7.73-3.975   C55.83,20.457,52.711,23,49,23S42.17,20.457,41.27,17.025z" style="fill:#3F3A34;"/><path d="M53,15c0-2.206-1.794-4-4-4s-4,1.794-4,4s1.794,4,4,4S53,17.206,53,15z M49,17c-1.103,0-2-0.897-2-2   s0.897-2,2-2s2,0.897,2,2S50.103,17,49,17z" style="fill:#3F3A34;"/></g></svg>