<?xml version="1.0" encoding="utf-8"?>
<!-- Generator: Adobe Illustrator 23.0.1, SVG Export Plug-In . SVG Version: 6.00 Build 0)  -->
<svg version="1.1" id="Camada_1" xmlns="http://www.w3.org/2000/svg" xmlns:xlink="http://www.w3.org/1999/xlink" x="0px" y="0px"
	 viewBox="0 0 150 50" style="enable-background:new 0 0 150 50;" xml:space="preserve">
<g>
	<path style="fill:#FFFFFF;" d="M9.95,31.89c0.22,0,0.48,0.17,0.78,0.5c0.93,1.01,2.06,1.82,3.4,2.44c1.34,0.61,2.66,0.92,3.97,0.92
		c1.45,0,2.17-0.44,2.17-1.32c0-0.56-0.25-1.18-0.76-1.88s-1.72-2.08-3.63-4.14c-2.41-2.61-4.01-4.54-4.82-5.8
		c-1.06-1.67-1.59-3.25-1.59-4.76c0-2.27,1.01-4.13,3.04-5.58c1.99-1.42,4.44-2.13,7.36-2.13c2.04,0,3.91,0.41,5.61,1.24
		c0.64,0.32,1.2,0.69,1.66,1.11c0.46,0.42,0.69,0.77,0.69,1.06c0,0.14-0.06,0.26-0.19,0.38c-0.13,0.12-0.26,0.18-0.4,0.18
		c-0.21,0-0.52-0.19-0.93-0.57c-0.67-0.63-1.54-1.15-2.63-1.57c-1.09-0.41-2.13-0.62-3.13-0.62c-0.62,0-1.12,0.13-1.51,0.4
		c-0.39,0.27-0.58,0.61-0.58,1.03c0,0.51,0.24,1.12,0.72,1.85c0.48,0.73,1.3,1.7,2.44,2.91c3.63,3.87,5.86,6.47,6.67,7.82
		c0.85,1.42,1.28,2.79,1.28,4.11c0,1.12-0.3,2.19-0.91,3.19c-0.61,1-1.45,1.82-2.52,2.46c-2.05,1.22-4.55,1.83-7.5,1.83
		c-2.72,0-5.11-0.7-7.17-2.11c-1.45-0.99-2.17-1.76-2.17-2.32c0-0.16,0.06-0.31,0.19-0.43C9.62,31.96,9.78,31.89,9.95,31.89z"/>
	<path style="fill:#FFFFFF;" d="M53.62,31.65v0.52l0.02,3.56v0.46h-11.3l0.02-1.13l0.09-13.02l-0.07-6.19l-0.02-4.21l-0.02-0.74
		h8.47c3.46,0,6.08,0.15,7.87,0.44c1.78,0.3,3.28,0.83,4.49,1.59c1.63,1.03,2.89,2.45,3.78,4.28c0.68,1.4,1.02,2.86,1.02,4.39
		c0,1.66-0.38,3.24-1.15,4.74c-0.91,1.8-2.21,3.19-3.88,4.16s-3.61,1.45-5.81,1.45C56.31,31.97,55.14,31.86,53.62,31.65z
		 M53.64,12.16v1.24l-0.07,12.38l0.04,4.61c0.98,0.26,2.24,0.39,3.8,0.39c1.4,0,2.72-0.28,3.96-0.83s2.3-1.34,3.17-2.35
		c1.47-1.72,2.2-3.71,2.2-5.98c0-2.16-0.73-4.12-2.19-5.87c-1.04-1.25-2.38-2.16-4.02-2.72c-1.64-0.57-3.76-0.85-6.34-0.85H53.64z"
		/>
	<path style="fill:#FFFFFF;" d="M91.99,19.02c-0.02,0.57-0.04,1.26-0.04,2.08v1.11l0.13,12.78l6.28-0.06l4.45-0.05
		c0.73,0,1.09,0.22,1.09,0.66c0,0.37-0.18,0.57-0.56,0.62c-0.09,0.01-0.6,0.02-1.54,0.04H80.76l0.02-0.96l0.02-6.19l0.07-6.63
		L80.73,10.9h19.64c0.88,0,1.38,0.02,1.5,0.05c0.28,0.07,0.43,0.28,0.43,0.62c0,0.43-0.27,0.64-0.82,0.64h-0.13l-9.28-0.11
		l-0.07,5.74l2.02,0.02l6.48-0.11l1.43-0.02c0.52,0,0.86,0.04,1.03,0.13c0.17,0.09,0.25,0.26,0.25,0.53c0,0.49-0.41,0.73-1.22,0.73
		l-1.46-0.04L91.99,19.02z"/>
	<path style="fill:#FFFFFF;" d="M115.61,10.9h9.75c2.54,0,4.46,0.12,5.74,0.37c3.17,0.61,5.74,2.3,7.69,5.08
		c1.53,2.19,2.3,4.59,2.3,7.23c0,2.68-0.79,5.12-2.37,7.32c-1.9,2.66-4.38,4.3-7.45,4.95c-0.79,0.16-1.5,0.26-2.11,0.3
		c-0.62,0.04-1.98,0.06-4.08,0.06h-9.41l0.06-12.23L115.61,10.9z M126.95,12.09l-0.11,14.9l0.11,8.02c1.66-0.01,2.84-0.08,3.57-0.19
		c0.72-0.12,1.55-0.38,2.49-0.79c2.21-0.95,3.95-2.48,5.21-4.59c1.1-1.82,1.65-3.78,1.65-5.89c0-2.3-0.65-4.41-1.94-6.34
		c-2.31-3.42-5.72-5.13-10.25-5.13L126.95,12.09z"/>
</g>
</svg>
